<svg xmlns="http://www.w3.org/2000/svg" width="148" height="177" viewBox="0 0 148 177">
  <defs>
    <style>
      .cls-1 {
        fill: #fff;
        fill-rule: evenodd;
      }
    </style>
  </defs>
  <path id="icon_json" class="cls-1" d="M1031.99,801.091V927.72a9.3,9.3,0,0,1-9.31,9.287H893.32a9.311,9.311,0,0,1-9.314-9.287V769.29A9.31,9.31,0,0,1,893.32,760h97.468a9.3,9.3,0,0,1,3.816.82,0.249,0.249,0,0,1,.033.016,9.266,9.266,0,0,1,2.736,1.885l0.012,0.011,0.006,0,31.859,31.767v0.006l0.01,0.012a9.035,9.035,0,0,1,1.89,2.728,0.061,0.061,0,0,1,.02.034A9.278,9.278,0,0,1,1031.99,801.091ZM893.32,762.328a6.98,6.98,0,0,0-6.982,6.962V927.72a6.98,6.98,0,0,0,6.982,6.961h129.36a6.978,6.978,0,0,0,6.98-6.961V801.091a6.812,6.812,0,0,0-.39-2.2h-26.96A9.309,9.309,0,0,1,993,789.6V762.715a6.989,6.989,0,0,0-2.21-.387H893.32Zm102.4,2.04c-0.122-.121-0.265-0.211-0.394-0.323V789.6a6.978,6.978,0,0,0,6.98,6.961h25.63a4.422,4.422,0,0,0-.33-0.392Zm-71.1,146.593a2.269,2.269,0,0,0,.785-0.791A2.166,2.166,0,1,0,924.62,910.961Zm7.05,1.455a3.446,3.446,0,0,1-.6,2.179,2.279,2.279,0,0,1-1.907.767h-0.532v2.656h0.58a5.8,5.8,0,0,0,2.964-.688,4.309,4.309,0,0,0,1.763-1.944,6.976,6.976,0,0,0,.585-2.97v-19.9H931.67v19.9ZM934.5,888.86a1.856,1.856,0,0,0,0-2.729,2.088,2.088,0,0,0-2.861,0,1.856,1.856,0,0,0,0,2.729A2.088,2.088,0,0,0,934.5,888.86Zm16.981,4.624a6.959,6.959,0,0,0-4.329-1.207,8.473,8.473,0,0,0-3.5.688,5.952,5.952,0,0,0-2.427,1.9,4.562,4.562,0,0,0-.887,2.777,4.5,4.5,0,0,0,1.189,3.193,7.3,7.3,0,0,0,3.737,1.878l3.091,0.724a4.351,4.351,0,0,1,2.076.984,2.177,2.177,0,0,1,.677,1.624,2.481,2.481,0,0,1-1.178,2.047,5.3,5.3,0,0,1-3.169.851,4.874,4.874,0,0,1-2.831-.749,3.741,3.741,0,0,1-1.467-2.246l-2.705.677a5.462,5.462,0,0,0,2.355,3.6,8.334,8.334,0,0,0,4.7,1.231,9.257,9.257,0,0,0,3.791-.724,6.133,6.133,0,0,0,2.542-1.98,4.728,4.728,0,0,0,.912-2.85,4.34,4.34,0,0,0-1.22-3.181,7.64,7.64,0,0,0-3.707-1.842l-2.752-.676a6.433,6.433,0,0,1-2.415-1.026,2.031,2.031,0,0,1-.773-1.678,2.322,2.322,0,0,1,1.129-1.974,4.873,4.873,0,0,1,2.831-.779,4.571,4.571,0,0,1,2.041.4,3.548,3.548,0,0,1,1.262,1.009,4.969,4.969,0,0,1,.706,1.249l2.559-.724A6.523,6.523,0,0,0,951.482,893.484Zm19.661,16.771a8.075,8.075,0,0,0,2.946-3.345,11.259,11.259,0,0,0,1.056-5.022,11.4,11.4,0,0,0-1.056-5.059,8.128,8.128,0,0,0-14.694,0,11.385,11.385,0,0,0-1.057,5.059,11.245,11.245,0,0,0,1.057,5.022A8.364,8.364,0,0,0,971.143,910.255Zm-7.54-2.342a5.768,5.768,0,0,1-1.824-2.572,9.859,9.859,0,0,1-.591-3.453,9.96,9.96,0,0,1,.591-3.466,5.839,5.839,0,0,1,1.824-2.6,5.471,5.471,0,0,1,6.278,0,5.837,5.837,0,0,1,1.823,2.6,9.961,9.961,0,0,1,.592,3.466,9.859,9.859,0,0,1-.592,3.453,5.766,5.766,0,0,1-1.823,2.572A5.526,5.526,0,0,1,963.6,907.913Zm20.2-10.758a4.223,4.223,0,0,1,1.684-1.727,4.94,4.94,0,0,1,2.433-.591,4.037,4.037,0,0,1,3.115,1.225,4.827,4.827,0,0,1,1.135,3.411v11.591h2.849V899.28a8.651,8.651,0,0,0-.784-3.918,5.251,5.251,0,0,0-2.2-2.318,6.794,6.794,0,0,0-3.3-.767,6.191,6.191,0,0,0-3.429.863,5.341,5.341,0,0,0-1.98,2.276h-0.242v-2.9h-2.752v18.546h2.849V899.908A5.694,5.694,0,0,1,983.807,897.155Z" transform="translate(-884 -760)"/>
</svg>
