<svg xmlns="http://www.w3.org/2000/svg" width="148" height="177" viewBox="0 0 148 177">
  <defs>
    <style>
      .cls-1 {
        fill: #fff;
        fill-rule: evenodd;
      }
    </style>
  </defs>
  <path id="icon_txt" class="cls-1" d="M516.992,801.091V927.72a9.31,9.31,0,0,1-9.313,9.287H378.32a9.311,9.311,0,0,1-9.314-9.287V769.29A9.31,9.31,0,0,1,378.32,760h97.468a9.3,9.3,0,0,1,3.816.82,0.249,0.249,0,0,1,.033.016,9.266,9.266,0,0,1,2.736,1.885l0.012,0.011,0.006,0,31.857,31.767,0,0.006,0.012,0.012a9.273,9.273,0,0,1,1.89,2.728c0,0.012.011,0.022,0.016,0.034A9.232,9.232,0,0,1,516.992,801.091ZM378.32,762.328a6.98,6.98,0,0,0-6.982,6.962V927.72a6.98,6.98,0,0,0,6.982,6.961H507.679a6.979,6.979,0,0,0,6.981-6.961V801.091a6.919,6.919,0,0,0-.388-2.2H487.311A9.309,9.309,0,0,1,478,789.6V762.715a6.989,6.989,0,0,0-2.21-.387H378.32Zm102.4,2.04c-0.122-.121-0.265-0.211-0.394-0.323V789.6a6.979,6.979,0,0,0,6.981,6.961h25.628c-0.112-.128-0.2-0.271-0.324-0.392Z" transform="translate(-369 -760)"/>
</svg>
