<svg xmlns="http://www.w3.org/2000/svg" width="208" height="177" viewBox="0 0 208 177">
  <defs>
    <style>
      .cls-1 {
        fill: #fff;
        fill-rule: evenodd;
      }
    </style>
  </defs>
  <path id="icon_playlist" class="cls-1" d="M1301.58,937H1126.42a16.422,16.422,0,0,1-16.43-16.378V814.337a16.422,16.422,0,0,1,16.43-16.378h175.16a16.422,16.422,0,0,1,16.43,16.378V920.622A16.422,16.422,0,0,1,1301.58,937Zm14.04-122.663a14.032,14.032,0,0,0-14.04-13.989H1126.42a14.032,14.032,0,0,0-14.04,13.989V920.622a14.032,14.032,0,0,0,14.04,13.99h175.16a14.032,14.032,0,0,0,14.04-13.99V814.337Zm-87.27,79.136c-6.37,0-11.55-4.4-11.55-9.8s5.18-9.8,11.55-9.8a12.448,12.448,0,0,1,8.64,3.328v-29.3l-37.9,12.592v35.7c0,5.4-5.18,9.8-11.54,9.8s-11.55-4.395-11.55-9.8,5.18-9.8,11.55-9.8a12.469,12.469,0,0,1,8.64,3.326V841.822l43.7-13.365v55.217C1239.89,889.077,1234.71,893.473,1228.35,893.473Zm-40.8-4.165c-4.77,0-8.65,3.092-8.65,6.894s3.88,6.895,8.65,6.895,8.64-3.092,8.64-6.895S1192.31,889.308,1187.55,889.308Zm49.44-56.993-37.9,11.69V857.37l37.9-12.592V832.315Zm-8.64,44.465c-4.77,0-8.65,3.093-8.65,6.894s3.88,6.9,8.65,6.9,8.64-3.093,8.64-6.9S1233.12,876.78,1228.35,876.78Zm88.46-84.024a1.19,1.19,0,0,1-1.19-1.194,14.032,14.032,0,0,0-14.04-13.99h-96.5a16.565,16.565,0,0,1-11.62-4.8l-10.42-10.385h-56.62a14.031,14.031,0,0,0-14.04,13.989v15.184a1.2,1.2,0,0,1-2.39,0V776.378A16.422,16.422,0,0,1,1126.42,760h57.12a1.189,1.189,0,0,1,.84.35l10.77,10.736a14.174,14.174,0,0,0,9.93,4.1h96.5a16.422,16.422,0,0,1,16.43,16.378A1.193,1.193,0,0,1,1316.81,792.756Z" transform="translate(-1110 -760)"/>
</svg>
