<svg xmlns="http://www.w3.org/2000/svg">
  <symbol id="icon-folder" viewBox="0 0 208 177">
    <path d="M273.582,937H98.416a16.422,16.422,0,0,1-16.43-16.378V814.337a16.422,16.422,0,0,1,16.43-16.378H273.582a16.422,16.422,0,0,1,16.43,16.378V920.622A16.422,16.422,0,0,1,273.582,937Zm14.034-122.663a14.028,14.028,0,0,0-14.034-13.989H98.416a14.028,14.028,0,0,0-14.034,13.989V920.622a14.028,14.028,0,0,0,14.034,13.99H273.582a14.028,14.028,0,0,0,14.034-13.99V814.337Zm1.2-21.581a1.2,1.2,0,0,1-1.2-1.194,14.028,14.028,0,0,0-14.034-13.99H177.076a16.565,16.565,0,0,1-11.616-4.8l-10.421-10.385H98.416a14.027,14.027,0,0,0-14.034,13.989v15.184a1.2,1.2,0,0,1-2.4,0V776.378A16.422,16.422,0,0,1,98.416,760h57.119a1.2,1.2,0,0,1,.847.35l10.772,10.736a14.155,14.155,0,0,0,9.922,4.1h96.506a16.422,16.422,0,0,1,16.43,16.378A1.2,1.2,0,0,1,288.814,792.756Z" transform="translate(-82 -760)"/>
  </symbol>
</svg>
